<svg id="artwork" xmlns="http://www.w3.org/2000/svg" viewBox="0 0 512 512"><title>Meeting</title><g id="Meeting"><rect x="44.64" y="327.83" width="445.9" height="30.89" style="fill:#ef835e"/><polygon points="149.7 217.45 149.7 135.32 44.64 135.32 44.64 196.36 124.54 196.36 149.7 217.45" style="fill:#c6d0dc"/><polygon points="341.96 175.43 341.96 93.29 447.02 93.29 447.02 154.33 367.12 154.33 341.96 175.43" style="fill:#c6d0dc"/><polygon points="322.03 153.93 322.03 71.79 427.09 71.79 427.09 132.83 347.19 132.83 322.03 153.93" style="fill:#f7c648"/><polygon points="173.06 194.99 173.06 112.86 68 112.86 68 173.9 147.91 173.9 173.06 194.99" style="fill:#59aee4"/><circle cx="268.9" cy="167.94" r="34.57" transform="translate(48.22 395.56) rotate(-77.87)" style="fill:#fff"/><circle cx="393.49" cy="248.93" r="34.57" transform="translate(-60.77 351.15) rotate(-45)" style="fill:#fff"/><circle cx="142.46" cy="248.21" r="34.57" transform="translate(-125.54 348.61) rotate(-80.68)" style="fill:#fff"/><path d="M331.85,328.5H206V231a23.85,23.85,0,0,1,23.85-23.85H308A23.85,23.85,0,0,1,331.85,231Z" style="fill:#fff"/><path d="M204.64,408.1H78.75V310.58a23.85,23.85,0,0,1,23.85-23.85h78.19a23.85,23.85,0,0,1,23.85,23.85Z" style="fill:#c6d0dc"/><path d="M456.44,408.53H330.55V311a23.85,23.85,0,0,1,23.85-23.85h78.19A23.85,23.85,0,0,1,456.44,311Z" style="fill:#c6d0dc"/><polygon points="268.9 243.48 290.05 207.91 247.75 207.91 268.9 243.48" style="fill:#59aee4"/><rect x="87.03" y="136.32" width="14.78" height="14.78"/><rect x="139.26" y="136.83" width="14.78" height="14.78"/><rect x="113.14" y="136.31" width="14.78" height="14.78"/><rect x="341.27" y="94.45" width="14.78" height="14.78"/><rect x="393.49" y="94.97" width="14.78" height="14.78"/><rect x="367.38" y="94.45" width="14.78" height="14.78"/><path d="M179.06,207.85v-101H62v73h83.72ZM74,118.86h93.06v63.27l-17-14.23H74Z"/><path d="M433.3,138.83v-73H316.24v101l33.34-28Zm-105.06,2.23V77.79H421.3v49H345.22Z"/><rect x="220.5" y="352.72" width="94" height="12"/><path d="M462.43,321.83V310.59a29.88,29.88,0,0,0-29.85-29.85H417.7a40.57,40.57,0,1,0-48.44,0H354.39a29.68,29.68,0,0,0-17.85,5.94V230.31a29.89,29.89,0,0,0-29.86-29.85H291.81a40.57,40.57,0,1,0-48.44,0H228.49a29.88,29.88,0,0,0-29.85,29.85v56.37a29.68,29.68,0,0,0-17.85-5.94H165.92a40.57,40.57,0,1,0-48.44,0H102.6a29.88,29.88,0,0,0-29.85,29.85v11.24H38.64v42.89H72.75V414.1H210.64V333.83h113.9V414.1H462.43V364.72h34.11V321.83ZM72.75,352.72H50.64V333.83H72.75Zm40.38-104.51a28.57,28.57,0,1,1,28.57,28.57A28.59,28.59,0,0,1,113.13,248.21Zm85.51,85.62V402.1H181.52V327.57h-12V402.1H113.88V327.83h-12V402.1H84.75V310.59a17.87,17.87,0,0,1,17.85-17.85h78.19a17.87,17.87,0,0,1,17.85,17.85ZM239,167.94a28.57,28.57,0,1,1,28.57,28.56A28.6,28.6,0,0,1,239,167.94Zm39,44.52-10.07,18.1-8.9-18.1Zm46.55,98.13v11.24H308.16V248.21h-12v73.62H240.52v-72.9h-12v72.9H210.64V230.31a17.87,17.87,0,0,1,17.85-17.85h17.16l21.61,44,24.47-44h14.95a17.88,17.88,0,0,1,17.86,17.85Zm40.37-62.38a28.57,28.57,0,1,1,28.57,28.57A28.6,28.6,0,0,1,364.91,248.21ZM450.43,402.1H433.3V327.57h-12V402.1H365.66V327.83h-12V402.1H336.54V310.59a17.87,17.87,0,0,1,17.85-17.85h78.19a17.87,17.87,0,0,1,17.85,17.85Zm34.11-49.38H462.43V333.83h22.11Z"/></g></svg>